<svg xmlns="http://www.w3.org/2000/svg" viewBox="0 0 1440 320">
  <path fill="#f3f4f5" fill-opacity="1" d="M0,224L0,256L102.9,256L102.9,192L205.7,192L205.7,32L308.6,32L308.6,96L411.4,96L411.4,96L514.3,96L514.3,160L617.1,160L617.1,64L720,64L720,96L822.9,96L822.9,160L925.7,160L925.7,256L1028.6,256L1028.6,128L1131.4,128L1131.4,0L1234.3,0L1234.3,96L1337.1,96L1337.1,160L1440,160L1440,320L1337.1,320L1337.1,320L1234.3,320L1234.3,320L1131.4,320L1131.4,320L1028.6,320L1028.6,320L925.7,320L925.7,320L822.9,320L822.9,320L720,320L720,320L617.1,320L617.1,320L514.3,320L514.3,320L411.4,320L411.4,320L308.6,320L308.6,320L205.7,320L205.7,320L102.9,320L102.9,320L0,320L0,320Z"></path>
</svg>